<mxfile host="Electron" agent="Mozilla/5.0 (Windows NT 10.0; Win64; x64) AppleWebKit/537.36 (KHTML, like Gecko) draw.io/26.0.16 Chrome/132.0.6834.196 Electron/34.2.0 Safari/537.36" version="26.0.16">
  <diagram name="페이지-1" id="WFK3oivLBN8lYvQ-zg6V">
    <mxGraphModel dx="757" dy="681" grid="1" gridSize="10" guides="1" tooltips="1" connect="1" arrows="1" fold="1" page="1" pageScale="1" pageWidth="827" pageHeight="1169" math="0" shadow="0">
      <root>
        <mxCell id="0" />
        <mxCell id="1" parent="0" />
        <mxCell id="4jsfSV7-COeRs6q7deXf-14" value="" style="group" parent="1" vertex="1" connectable="0">
          <mxGeometry x="110" y="30" width="120" height="230" as="geometry" />
        </mxCell>
        <mxCell id="4jsfSV7-COeRs6q7deXf-7" style="edgeStyle=orthogonalEdgeStyle;rounded=0;orthogonalLoop=1;jettySize=auto;html=1;entryX=0.5;entryY=0;entryDx=0;entryDy=0;" parent="4jsfSV7-COeRs6q7deXf-14" source="4jsfSV7-COeRs6q7deXf-1" target="4jsfSV7-COeRs6q7deXf-2" edge="1">
          <mxGeometry relative="1" as="geometry" />
        </mxCell>
        <mxCell id="4jsfSV7-COeRs6q7deXf-1" value="idle" style="ellipse;whiteSpace=wrap;html=1;aspect=fixed;" parent="4jsfSV7-COeRs6q7deXf-14" vertex="1">
          <mxGeometry x="38" width="64.00090354216766" height="64.00090354216766" as="geometry" />
        </mxCell>
        <mxCell id="4jsfSV7-COeRs6q7deXf-8" style="edgeStyle=orthogonalEdgeStyle;rounded=0;orthogonalLoop=1;jettySize=auto;html=1;entryX=0.5;entryY=0;entryDx=0;entryDy=0;" parent="4jsfSV7-COeRs6q7deXf-14" source="4jsfSV7-COeRs6q7deXf-2" target="4jsfSV7-COeRs6q7deXf-3" edge="1">
          <mxGeometry relative="1" as="geometry" />
        </mxCell>
        <mxCell id="4jsfSV7-COeRs6q7deXf-2" value="tx = 1" style="rounded=0;whiteSpace=wrap;html=1;" parent="4jsfSV7-COeRs6q7deXf-14" vertex="1">
          <mxGeometry x="20" y="90.00350908483414" width="100" height="36.14168670616526" as="geometry" />
        </mxCell>
        <mxCell id="4jsfSV7-COeRs6q7deXf-9" style="edgeStyle=orthogonalEdgeStyle;rounded=0;orthogonalLoop=1;jettySize=auto;html=1;entryX=0;entryY=0.5;entryDx=0;entryDy=0;" parent="4jsfSV7-COeRs6q7deXf-14" source="4jsfSV7-COeRs6q7deXf-3" target="4jsfSV7-COeRs6q7deXf-1" edge="1">
          <mxGeometry relative="1" as="geometry">
            <Array as="points">
              <mxPoint y="183" />
              <mxPoint y="32" />
            </Array>
          </mxGeometry>
        </mxCell>
        <mxCell id="4jsfSV7-COeRs6q7deXf-10" value="0" style="edgeLabel;html=1;align=center;verticalAlign=middle;resizable=0;points=[];" parent="4jsfSV7-COeRs6q7deXf-9" vertex="1" connectable="0">
          <mxGeometry x="-0.8898" y="-1" relative="1" as="geometry">
            <mxPoint y="8" as="offset" />
          </mxGeometry>
        </mxCell>
        <mxCell id="4jsfSV7-COeRs6q7deXf-3" value="start" style="rhombus;whiteSpace=wrap;html=1;" parent="4jsfSV7-COeRs6q7deXf-14" vertex="1">
          <mxGeometry x="20" y="160.00289161729341" width="100" height="45.17710838270658" as="geometry" />
        </mxCell>
        <mxCell id="4jsfSV7-COeRs6q7deXf-24" value="" style="group" parent="1" vertex="1" connectable="0">
          <mxGeometry x="110" y="280" width="120" height="230" as="geometry" />
        </mxCell>
        <mxCell id="4jsfSV7-COeRs6q7deXf-25" style="edgeStyle=orthogonalEdgeStyle;rounded=0;orthogonalLoop=1;jettySize=auto;html=1;entryX=0.5;entryY=0;entryDx=0;entryDy=0;" parent="4jsfSV7-COeRs6q7deXf-24" source="4jsfSV7-COeRs6q7deXf-26" target="4jsfSV7-COeRs6q7deXf-28" edge="1">
          <mxGeometry relative="1" as="geometry" />
        </mxCell>
        <mxCell id="4jsfSV7-COeRs6q7deXf-26" value="start" style="ellipse;whiteSpace=wrap;html=1;aspect=fixed;" parent="4jsfSV7-COeRs6q7deXf-24" vertex="1">
          <mxGeometry x="38" width="64.00090354216766" height="64.00090354216766" as="geometry" />
        </mxCell>
        <mxCell id="4jsfSV7-COeRs6q7deXf-27" style="edgeStyle=orthogonalEdgeStyle;rounded=0;orthogonalLoop=1;jettySize=auto;html=1;entryX=0.5;entryY=0;entryDx=0;entryDy=0;" parent="4jsfSV7-COeRs6q7deXf-24" source="4jsfSV7-COeRs6q7deXf-28" target="4jsfSV7-COeRs6q7deXf-33" edge="1">
          <mxGeometry relative="1" as="geometry" />
        </mxCell>
        <mxCell id="4jsfSV7-COeRs6q7deXf-28" value="tx = 0" style="rounded=0;whiteSpace=wrap;html=1;" parent="4jsfSV7-COeRs6q7deXf-24" vertex="1">
          <mxGeometry x="20" y="90.00350908483414" width="100" height="36.14168670616526" as="geometry" />
        </mxCell>
        <mxCell id="4jsfSV7-COeRs6q7deXf-29" style="edgeStyle=orthogonalEdgeStyle;rounded=0;orthogonalLoop=1;jettySize=auto;html=1;entryX=0;entryY=0.5;entryDx=0;entryDy=0;" parent="4jsfSV7-COeRs6q7deXf-24" source="4jsfSV7-COeRs6q7deXf-33" target="4jsfSV7-COeRs6q7deXf-26" edge="1">
          <mxGeometry relative="1" as="geometry">
            <Array as="points">
              <mxPoint y="183" />
              <mxPoint y="32" />
            </Array>
          </mxGeometry>
        </mxCell>
        <mxCell id="4jsfSV7-COeRs6q7deXf-30" value="0" style="edgeLabel;html=1;align=center;verticalAlign=middle;resizable=0;points=[];" parent="4jsfSV7-COeRs6q7deXf-29" vertex="1" connectable="0">
          <mxGeometry x="-0.8898" y="-1" relative="1" as="geometry">
            <mxPoint y="8" as="offset" />
          </mxGeometry>
        </mxCell>
        <mxCell id="4jsfSV7-COeRs6q7deXf-33" value="tick" style="rhombus;whiteSpace=wrap;html=1;" parent="4jsfSV7-COeRs6q7deXf-24" vertex="1">
          <mxGeometry x="20" y="160.00289161729341" width="100" height="45.17710838270658" as="geometry" />
        </mxCell>
        <mxCell id="4jsfSV7-COeRs6q7deXf-12" style="edgeStyle=orthogonalEdgeStyle;rounded=0;orthogonalLoop=1;jettySize=auto;html=1;entryX=0.5;entryY=0;entryDx=0;entryDy=0;" parent="1" source="4jsfSV7-COeRs6q7deXf-3" target="4jsfSV7-COeRs6q7deXf-26" edge="1">
          <mxGeometry relative="1" as="geometry">
            <mxPoint x="170.00045177108382" y="260" as="targetPoint" />
          </mxGeometry>
        </mxCell>
        <mxCell id="4jsfSV7-COeRs6q7deXf-13" value="1" style="edgeLabel;html=1;align=center;verticalAlign=middle;resizable=0;points=[];" parent="4jsfSV7-COeRs6q7deXf-12" vertex="1" connectable="0">
          <mxGeometry x="0.4426" y="1" relative="1" as="geometry">
            <mxPoint x="-11" y="-23" as="offset" />
          </mxGeometry>
        </mxCell>
        <mxCell id="4jsfSV7-COeRs6q7deXf-31" style="edgeStyle=orthogonalEdgeStyle;rounded=0;orthogonalLoop=1;jettySize=auto;html=1;entryX=0.5;entryY=0;entryDx=0;entryDy=0;" parent="1" source="4jsfSV7-COeRs6q7deXf-33" target="4jsfSV7-COeRs6q7deXf-36" edge="1">
          <mxGeometry relative="1" as="geometry">
            <mxPoint x="260" y="30" as="targetPoint" />
            <Array as="points">
              <mxPoint x="260" y="463" />
              <mxPoint x="260" y="10" />
              <mxPoint x="350" y="10" />
            </Array>
          </mxGeometry>
        </mxCell>
        <mxCell id="4jsfSV7-COeRs6q7deXf-32" value="1" style="edgeLabel;html=1;align=center;verticalAlign=middle;resizable=0;points=[];" parent="4jsfSV7-COeRs6q7deXf-31" vertex="1" connectable="0">
          <mxGeometry x="0.4426" y="1" relative="1" as="geometry">
            <mxPoint x="-11" y="384" as="offset" />
          </mxGeometry>
        </mxCell>
        <mxCell id="4jsfSV7-COeRs6q7deXf-46" value="" style="group" parent="1" vertex="1" connectable="0">
          <mxGeometry x="280" y="280" width="120" height="230" as="geometry" />
        </mxCell>
        <mxCell id="4jsfSV7-COeRs6q7deXf-47" style="edgeStyle=orthogonalEdgeStyle;rounded=0;orthogonalLoop=1;jettySize=auto;html=1;entryX=0.5;entryY=0;entryDx=0;entryDy=0;" parent="4jsfSV7-COeRs6q7deXf-46" source="4jsfSV7-COeRs6q7deXf-48" target="4jsfSV7-COeRs6q7deXf-50" edge="1">
          <mxGeometry relative="1" as="geometry" />
        </mxCell>
        <mxCell id="4jsfSV7-COeRs6q7deXf-48" value="STOP" style="ellipse;whiteSpace=wrap;html=1;aspect=fixed;" parent="4jsfSV7-COeRs6q7deXf-46" vertex="1">
          <mxGeometry x="38" width="64.00090354216766" height="64.00090354216766" as="geometry" />
        </mxCell>
        <mxCell id="4jsfSV7-COeRs6q7deXf-49" style="edgeStyle=orthogonalEdgeStyle;rounded=0;orthogonalLoop=1;jettySize=auto;html=1;entryX=0.5;entryY=0;entryDx=0;entryDy=0;" parent="4jsfSV7-COeRs6q7deXf-46" source="4jsfSV7-COeRs6q7deXf-50" target="4jsfSV7-COeRs6q7deXf-55" edge="1">
          <mxGeometry relative="1" as="geometry" />
        </mxCell>
        <mxCell id="4jsfSV7-COeRs6q7deXf-50" value="tx = 1" style="rounded=0;whiteSpace=wrap;html=1;" parent="4jsfSV7-COeRs6q7deXf-46" vertex="1">
          <mxGeometry x="20" y="90.00350908483414" width="100" height="36.14168670616526" as="geometry" />
        </mxCell>
        <mxCell id="4jsfSV7-COeRs6q7deXf-51" style="edgeStyle=orthogonalEdgeStyle;rounded=0;orthogonalLoop=1;jettySize=auto;html=1;entryX=0;entryY=0.5;entryDx=0;entryDy=0;" parent="4jsfSV7-COeRs6q7deXf-46" source="4jsfSV7-COeRs6q7deXf-55" target="4jsfSV7-COeRs6q7deXf-48" edge="1">
          <mxGeometry relative="1" as="geometry">
            <Array as="points">
              <mxPoint y="183" />
              <mxPoint y="32" />
            </Array>
          </mxGeometry>
        </mxCell>
        <mxCell id="4jsfSV7-COeRs6q7deXf-52" value="0" style="edgeLabel;html=1;align=center;verticalAlign=middle;resizable=0;points=[];" parent="4jsfSV7-COeRs6q7deXf-51" vertex="1" connectable="0">
          <mxGeometry x="-0.8898" y="-1" relative="1" as="geometry">
            <mxPoint y="8" as="offset" />
          </mxGeometry>
        </mxCell>
        <mxCell id="4jsfSV7-COeRs6q7deXf-55" value="tick" style="rhombus;whiteSpace=wrap;html=1;" parent="4jsfSV7-COeRs6q7deXf-46" vertex="1">
          <mxGeometry x="20" y="160.00289161729341" width="100" height="45.17710838270658" as="geometry" />
        </mxCell>
        <mxCell id="4jsfSV7-COeRs6q7deXf-34" value="" style="group" parent="1" vertex="1" connectable="0">
          <mxGeometry x="280" y="30" width="120" height="230" as="geometry" />
        </mxCell>
        <mxCell id="4jsfSV7-COeRs6q7deXf-35" style="edgeStyle=orthogonalEdgeStyle;rounded=0;orthogonalLoop=1;jettySize=auto;html=1;entryX=0.5;entryY=0;entryDx=0;entryDy=0;" parent="4jsfSV7-COeRs6q7deXf-34" source="4jsfSV7-COeRs6q7deXf-36" target="4jsfSV7-COeRs6q7deXf-38" edge="1">
          <mxGeometry relative="1" as="geometry" />
        </mxCell>
        <mxCell id="4jsfSV7-COeRs6q7deXf-36" value="RUN" style="ellipse;whiteSpace=wrap;html=1;aspect=fixed;" parent="4jsfSV7-COeRs6q7deXf-34" vertex="1">
          <mxGeometry x="38" width="64.00090354216766" height="64.00090354216766" as="geometry" />
        </mxCell>
        <mxCell id="ucueAaG7XauHpCNSyCRM-3" style="edgeStyle=orthogonalEdgeStyle;rounded=0;orthogonalLoop=1;jettySize=auto;html=1;exitX=0.5;exitY=1;exitDx=0;exitDy=0;entryX=0.5;entryY=0;entryDx=0;entryDy=0;" edge="1" parent="4jsfSV7-COeRs6q7deXf-34" source="4jsfSV7-COeRs6q7deXf-38" target="4jsfSV7-COeRs6q7deXf-43">
          <mxGeometry relative="1" as="geometry" />
        </mxCell>
        <mxCell id="4jsfSV7-COeRs6q7deXf-38" value="DATA[count]&lt;div&gt;count = count + 1&lt;/div&gt;" style="rounded=0;whiteSpace=wrap;html=1;" parent="4jsfSV7-COeRs6q7deXf-34" vertex="1">
          <mxGeometry x="20" y="80" width="100" height="60" as="geometry" />
        </mxCell>
        <mxCell id="4jsfSV7-COeRs6q7deXf-39" style="edgeStyle=orthogonalEdgeStyle;rounded=0;orthogonalLoop=1;jettySize=auto;html=1;entryX=0;entryY=0.5;entryDx=0;entryDy=0;" parent="4jsfSV7-COeRs6q7deXf-34" source="4jsfSV7-COeRs6q7deXf-43" target="4jsfSV7-COeRs6q7deXf-36" edge="1">
          <mxGeometry relative="1" as="geometry">
            <Array as="points">
              <mxPoint y="183" />
              <mxPoint y="32" />
            </Array>
          </mxGeometry>
        </mxCell>
        <mxCell id="4jsfSV7-COeRs6q7deXf-40" value="else" style="edgeLabel;html=1;align=center;verticalAlign=middle;resizable=0;points=[];" parent="4jsfSV7-COeRs6q7deXf-39" vertex="1" connectable="0">
          <mxGeometry x="-0.8898" y="-1" relative="1" as="geometry">
            <mxPoint y="8" as="offset" />
          </mxGeometry>
        </mxCell>
        <mxCell id="4jsfSV7-COeRs6q7deXf-43" value="count" style="rhombus;whiteSpace=wrap;html=1;" parent="4jsfSV7-COeRs6q7deXf-34" vertex="1">
          <mxGeometry x="20" y="160.00289161729341" width="100" height="45.17710838270658" as="geometry" />
        </mxCell>
        <mxCell id="4jsfSV7-COeRs6q7deXf-129" style="edgeStyle=orthogonalEdgeStyle;rounded=0;orthogonalLoop=1;jettySize=auto;html=1;entryX=0.5;entryY=0;entryDx=0;entryDy=0;exitX=0.507;exitY=0.979;exitDx=0;exitDy=0;exitPerimeter=0;" parent="1" source="4jsfSV7-COeRs6q7deXf-55" target="4jsfSV7-COeRs6q7deXf-1" edge="1">
          <mxGeometry relative="1" as="geometry">
            <Array as="points">
              <mxPoint x="351" y="510" />
              <mxPoint x="80" y="510" />
              <mxPoint x="80" y="10" />
              <mxPoint x="180" y="10" />
            </Array>
            <mxPoint x="410" y="460" as="sourcePoint" />
          </mxGeometry>
        </mxCell>
        <mxCell id="ucueAaG7XauHpCNSyCRM-1" value="1" style="edgeLabel;html=1;align=center;verticalAlign=middle;resizable=0;points=[];" vertex="1" connectable="0" parent="4jsfSV7-COeRs6q7deXf-129">
          <mxGeometry x="-0.9728" y="1" relative="1" as="geometry">
            <mxPoint x="7" as="offset" />
          </mxGeometry>
        </mxCell>
        <mxCell id="ucueAaG7XauHpCNSyCRM-4" style="edgeStyle=orthogonalEdgeStyle;rounded=0;orthogonalLoop=1;jettySize=auto;html=1;entryX=0.5;entryY=0;entryDx=0;entryDy=0;" edge="1" parent="1" source="4jsfSV7-COeRs6q7deXf-43" target="4jsfSV7-COeRs6q7deXf-48">
          <mxGeometry relative="1" as="geometry" />
        </mxCell>
        <mxCell id="ucueAaG7XauHpCNSyCRM-5" value="8" style="edgeLabel;html=1;align=center;verticalAlign=middle;resizable=0;points=[];" vertex="1" connectable="0" parent="ucueAaG7XauHpCNSyCRM-4">
          <mxGeometry x="-0.451" relative="1" as="geometry">
            <mxPoint x="6" y="1" as="offset" />
          </mxGeometry>
        </mxCell>
      </root>
    </mxGraphModel>
  </diagram>
</mxfile>
